<svg width="40" height="47" viewBox="0 0 40 47" fill="none" xmlns="http://www.w3.org/2000/svg">
<path d="M32.8794 18.2778V18.6792L33.1998 18.4374C33.8608 17.9388 34.6843 17.6074 35.6747 17.6074C37.9853 17.6074 39.8 19.4316 39.8 21.7593V32.2037C39.8 40.2759 33.3139 46.8 25.2937 46.8C19.8331 46.8 14.3622 44.231 10.4167 37.1556C9.02869 34.5809 7.53297 32.2256 6.12631 30.0891C5.71962 29.4714 5.3208 28.8726 4.93428 28.2923C3.98166 26.862 3.10379 25.5439 2.36709 24.3317C1.33028 22.6257 0.588915 21.154 0.315376 19.9023C0.0445106 18.6629 0.235634 17.6617 1.04041 16.852C1.61273 16.2762 2.2607 15.9923 2.96502 15.9311C3.67432 15.8695 4.4522 16.0331 5.2774 16.3737C6.93099 17.0562 8.72659 18.4292 10.4532 19.9926L10.7874 20.2953V19.8444V4.35181C10.7874 2.02417 12.6022 0.2 14.9128 0.2C17.2234 0.2 19.0381 2.02417 19.0381 4.35181V13.0555V13.457L19.3586 13.2152C20.0196 12.7165 20.843 12.3852 21.8334 12.3852C23.4788 12.3852 24.9641 13.377 25.627 15.0443L25.7271 15.2961L25.9382 15.1262C26.7673 14.4589 27.7609 14.126 28.754 14.126C31.0646 14.126 32.8794 15.95 32.8794 18.2778ZM32.8796 21.7593V22.4296H31.5494V18.2778C31.5494 16.7759 30.2499 15.4666 28.7541 15.4666C27.2584 15.4666 25.9588 16.7759 25.9588 18.2778V20.8889V36.5556V37.0406L26.3007 36.6966L31.6953 31.269L32.7975 32.3778L25.2938 39.9274L17.7901 32.3778L18.8923 31.269L24.2869 36.6966L24.6288 37.0406V36.5556V20.8889V16.5369C24.6288 15.035 23.3293 13.7258 21.8335 13.7258C20.3378 13.7258 19.0382 15.035 19.0382 16.5369V22.4296H17.7081V4.35181C17.7081 2.84991 16.4085 1.54065 14.9128 1.54065C13.417 1.54065 12.1175 2.84992 12.1175 4.35181V23.5231C10.3832 21.7181 8.43849 19.8721 6.67836 18.6572C5.74086 18.0101 4.84094 17.5315 4.04305 17.3407C3.2401 17.1488 2.50965 17.2434 1.96777 17.7886L1.96761 17.7885L1.96122 17.7955C1.45364 18.3573 1.45916 19.1374 1.77936 20.0955C2.10089 21.0577 2.76087 22.2663 3.66898 23.7564C4.26202 24.7296 4.96274 25.8259 5.75133 27.0597C7.38922 29.6223 9.40619 32.778 11.6248 36.6551L11.6247 36.6551L11.6282 36.6607C13.1921 39.1957 14.9389 41.3966 17.1321 42.9634C19.3295 44.533 21.9655 45.4594 25.2936 45.4594C32.5024 45.4594 38.4698 39.0986 38.4698 32.2038V25.789H38.4701V25.589V21.7593C38.4701 20.2574 37.1707 18.9481 35.6748 18.9481C34.1791 18.9481 32.8796 20.2574 32.8796 21.7593Z" stroke="#CEA950" stroke-width="0.4"/>
</svg>
